<mxfile host="app.diagrams.net" modified="2023-01-06T09:36:53.701Z" agent="5.0 (X11)" etag="cvaTZvD35dnJEZla2uMy" version="20.0.1" type="github">
  <diagram id="pYkzWGA8mSeGU97iOLey" name="Page-1">
    <mxGraphModel dx="3086" dy="756" grid="1" gridSize="10" guides="1" tooltips="1" connect="1" arrows="1" fold="1" page="1" pageScale="1" pageWidth="850" pageHeight="1100" math="0" shadow="0">
      <root>
        <mxCell id="0" />
        <mxCell id="1" parent="0" />
        <mxCell id="HDf3URYzIl1ITKoJXbYv-26" style="edgeStyle=orthogonalEdgeStyle;rounded=0;orthogonalLoop=1;jettySize=auto;html=1;entryX=0.5;entryY=0;entryDx=0;entryDy=0;" parent="1" source="HDf3URYzIl1ITKoJXbYv-1" target="HDf3URYzIl1ITKoJXbYv-2" edge="1">
          <mxGeometry relative="1" as="geometry" />
        </mxCell>
        <mxCell id="zUjJbxAkN1TlkHFBeBEU-1" style="edgeStyle=orthogonalEdgeStyle;rounded=0;orthogonalLoop=1;jettySize=auto;html=1;" edge="1" parent="1" source="HDf3URYzIl1ITKoJXbYv-1" target="HDf3URYzIl1ITKoJXbYv-32">
          <mxGeometry relative="1" as="geometry" />
        </mxCell>
        <mxCell id="HDf3URYzIl1ITKoJXbYv-1" value="Start" style="strokeWidth=2;html=1;shape=mxgraph.flowchart.start_2;whiteSpace=wrap;" parent="1" vertex="1">
          <mxGeometry x="340" y="110" width="100" height="100" as="geometry" />
        </mxCell>
        <mxCell id="HDf3URYzIl1ITKoJXbYv-27" style="edgeStyle=orthogonalEdgeStyle;rounded=0;orthogonalLoop=1;jettySize=auto;html=1;entryX=0.5;entryY=0;entryDx=0;entryDy=0;" parent="1" source="HDf3URYzIl1ITKoJXbYv-2" target="HDf3URYzIl1ITKoJXbYv-4" edge="1">
          <mxGeometry relative="1" as="geometry" />
        </mxCell>
        <mxCell id="zUjJbxAkN1TlkHFBeBEU-4" style="edgeStyle=orthogonalEdgeStyle;rounded=0;orthogonalLoop=1;jettySize=auto;html=1;" edge="1" parent="1" source="HDf3URYzIl1ITKoJXbYv-2" target="zUjJbxAkN1TlkHFBeBEU-2">
          <mxGeometry relative="1" as="geometry" />
        </mxCell>
        <mxCell id="HDf3URYzIl1ITKoJXbYv-2" value="DB::Write()" style="rounded=1;whiteSpace=wrap;html=1;absoluteArcSize=1;arcSize=14;strokeWidth=2;" parent="1" vertex="1">
          <mxGeometry x="275" y="280" width="230" height="50" as="geometry" />
        </mxCell>
        <mxCell id="HDf3URYzIl1ITKoJXbYv-28" style="edgeStyle=orthogonalEdgeStyle;rounded=0;orthogonalLoop=1;jettySize=auto;html=1;" parent="1" source="HDf3URYzIl1ITKoJXbYv-4" target="HDf3URYzIl1ITKoJXbYv-5" edge="1">
          <mxGeometry relative="1" as="geometry" />
        </mxCell>
        <mxCell id="HDf3URYzIl1ITKoJXbYv-4" value="WriteBatchInternal::InsertInto()" style="rounded=1;whiteSpace=wrap;html=1;absoluteArcSize=1;arcSize=14;strokeWidth=2;" parent="1" vertex="1">
          <mxGeometry x="257.5" y="400" width="265" height="50" as="geometry" />
        </mxCell>
        <mxCell id="HDf3URYzIl1ITKoJXbYv-29" style="edgeStyle=orthogonalEdgeStyle;rounded=0;orthogonalLoop=1;jettySize=auto;html=1;entryX=0.5;entryY=0;entryDx=0;entryDy=0;" parent="1" source="HDf3URYzIl1ITKoJXbYv-5" target="HDf3URYzIl1ITKoJXbYv-6" edge="1">
          <mxGeometry relative="1" as="geometry" />
        </mxCell>
        <mxCell id="HDf3URYzIl1ITKoJXbYv-5" value="WriteBatch::Iterate()" style="rounded=1;whiteSpace=wrap;html=1;absoluteArcSize=1;arcSize=14;strokeWidth=2;" parent="1" vertex="1">
          <mxGeometry x="257.5" y="520" width="265" height="50" as="geometry" />
        </mxCell>
        <mxCell id="HDf3URYzIl1ITKoJXbYv-30" style="edgeStyle=orthogonalEdgeStyle;rounded=0;orthogonalLoop=1;jettySize=auto;html=1;exitX=0.5;exitY=1;exitDx=0;exitDy=0;entryX=0.5;entryY=0;entryDx=0;entryDy=0;" parent="1" source="HDf3URYzIl1ITKoJXbYv-6" target="HDf3URYzIl1ITKoJXbYv-7" edge="1">
          <mxGeometry relative="1" as="geometry" />
        </mxCell>
        <mxCell id="HDf3URYzIl1ITKoJXbYv-6" value="WriteBatch::Handler::Put()" style="rounded=1;whiteSpace=wrap;html=1;absoluteArcSize=1;arcSize=14;strokeWidth=2;" parent="1" vertex="1">
          <mxGeometry x="257.5" y="640" width="265" height="50" as="geometry" />
        </mxCell>
        <mxCell id="HDf3URYzIl1ITKoJXbYv-31" style="edgeStyle=orthogonalEdgeStyle;rounded=0;orthogonalLoop=1;jettySize=auto;html=1;entryX=0.5;entryY=0;entryDx=0;entryDy=0;" parent="1" source="HDf3URYzIl1ITKoJXbYv-7" target="HDf3URYzIl1ITKoJXbYv-8" edge="1">
          <mxGeometry relative="1" as="geometry" />
        </mxCell>
        <mxCell id="HDf3URYzIl1ITKoJXbYv-7" value="MemTable::Put()" style="rounded=1;whiteSpace=wrap;html=1;absoluteArcSize=1;arcSize=14;strokeWidth=2;" parent="1" vertex="1">
          <mxGeometry x="257.5" y="760" width="265" height="50" as="geometry" />
        </mxCell>
        <mxCell id="HDf3URYzIl1ITKoJXbYv-8" value="SkipList&amp;lt;const char*, KeyComparator&amp;gt;::Insert()" style="rounded=1;whiteSpace=wrap;html=1;absoluteArcSize=1;arcSize=14;strokeWidth=2;" parent="1" vertex="1">
          <mxGeometry x="257.5" y="880" width="265" height="50" as="geometry" />
        </mxCell>
        <mxCell id="HDf3URYzIl1ITKoJXbYv-32" value="log::Writer::AddRecord(const Slice&amp;amp;)" style="rounded=1;whiteSpace=wrap;html=1;absoluteArcSize=1;arcSize=14;strokeWidth=2;" parent="1" vertex="1">
          <mxGeometry x="640" y="280" width="265" height="50" as="geometry" />
        </mxCell>
        <mxCell id="zUjJbxAkN1TlkHFBeBEU-6" style="edgeStyle=orthogonalEdgeStyle;rounded=0;orthogonalLoop=1;jettySize=auto;html=1;" edge="1" parent="1" source="zUjJbxAkN1TlkHFBeBEU-2" target="zUjJbxAkN1TlkHFBeBEU-5">
          <mxGeometry relative="1" as="geometry" />
        </mxCell>
        <mxCell id="zUjJbxAkN1TlkHFBeBEU-8" style="edgeStyle=orthogonalEdgeStyle;rounded=0;orthogonalLoop=1;jettySize=auto;html=1;" edge="1" parent="1" source="zUjJbxAkN1TlkHFBeBEU-2" target="zUjJbxAkN1TlkHFBeBEU-7">
          <mxGeometry relative="1" as="geometry" />
        </mxCell>
        <mxCell id="zUjJbxAkN1TlkHFBeBEU-10" style="edgeStyle=orthogonalEdgeStyle;rounded=0;orthogonalLoop=1;jettySize=auto;html=1;" edge="1" parent="1" source="zUjJbxAkN1TlkHFBeBEU-2" target="zUjJbxAkN1TlkHFBeBEU-9">
          <mxGeometry relative="1" as="geometry" />
        </mxCell>
        <mxCell id="zUjJbxAkN1TlkHFBeBEU-12" style="edgeStyle=orthogonalEdgeStyle;rounded=0;orthogonalLoop=1;jettySize=auto;html=1;" edge="1" parent="1" source="zUjJbxAkN1TlkHFBeBEU-2" target="zUjJbxAkN1TlkHFBeBEU-11">
          <mxGeometry relative="1" as="geometry" />
        </mxCell>
        <mxCell id="zUjJbxAkN1TlkHFBeBEU-2" value="DBImpl::MakeRoomForWrite(bool)" style="rounded=1;whiteSpace=wrap;html=1;absoluteArcSize=1;arcSize=14;strokeWidth=2;" vertex="1" parent="1">
          <mxGeometry x="-490" y="400" width="265" height="50" as="geometry" />
        </mxCell>
        <mxCell id="zUjJbxAkN1TlkHFBeBEU-5" value="Env::SleepForMicorSeconds(int)" style="rounded=1;whiteSpace=wrap;html=1;absoluteArcSize=1;arcSize=14;strokeWidth=2;" vertex="1" parent="1">
          <mxGeometry x="-900" y="520" width="265" height="50" as="geometry" />
        </mxCell>
        <mxCell id="zUjJbxAkN1TlkHFBeBEU-7" value="break" style="rounded=1;whiteSpace=wrap;html=1;absoluteArcSize=1;arcSize=14;strokeWidth=2;" vertex="1" parent="1">
          <mxGeometry x="-580" y="520" width="200" height="50" as="geometry" />
        </mxCell>
        <mxCell id="zUjJbxAkN1TlkHFBeBEU-9" value="background_work_finished_signal_.Wait()" style="rounded=1;whiteSpace=wrap;html=1;absoluteArcSize=1;arcSize=14;strokeWidth=2;" vertex="1" parent="1">
          <mxGeometry x="-80" y="520" width="265" height="50" as="geometry" />
        </mxCell>
        <mxCell id="zUjJbxAkN1TlkHFBeBEU-20" style="edgeStyle=orthogonalEdgeStyle;rounded=0;orthogonalLoop=1;jettySize=auto;html=1;" edge="1" parent="1" source="zUjJbxAkN1TlkHFBeBEU-11" target="zUjJbxAkN1TlkHFBeBEU-13">
          <mxGeometry relative="1" as="geometry" />
        </mxCell>
        <mxCell id="zUjJbxAkN1TlkHFBeBEU-11" value="NewWritableFile" style="rounded=1;whiteSpace=wrap;html=1;absoluteArcSize=1;arcSize=14;strokeWidth=2;" vertex="1" parent="1">
          <mxGeometry x="-330" y="520" width="210" height="50" as="geometry" />
        </mxCell>
        <mxCell id="zUjJbxAkN1TlkHFBeBEU-21" style="edgeStyle=orthogonalEdgeStyle;rounded=0;orthogonalLoop=1;jettySize=auto;html=1;entryX=0.5;entryY=0;entryDx=0;entryDy=0;" edge="1" parent="1" source="zUjJbxAkN1TlkHFBeBEU-13" target="zUjJbxAkN1TlkHFBeBEU-14">
          <mxGeometry relative="1" as="geometry" />
        </mxCell>
        <mxCell id="zUjJbxAkN1TlkHFBeBEU-13" value="DBImpl::MaybeScheduleCompaction" style="rounded=1;whiteSpace=wrap;html=1;absoluteArcSize=1;arcSize=14;strokeWidth=2;" vertex="1" parent="1">
          <mxGeometry x="-350" y="600" width="250" height="50" as="geometry" />
        </mxCell>
        <mxCell id="zUjJbxAkN1TlkHFBeBEU-22" style="edgeStyle=orthogonalEdgeStyle;rounded=0;orthogonalLoop=1;jettySize=auto;html=1;entryX=0.5;entryY=0;entryDx=0;entryDy=0;" edge="1" parent="1" source="zUjJbxAkN1TlkHFBeBEU-14" target="zUjJbxAkN1TlkHFBeBEU-15">
          <mxGeometry relative="1" as="geometry" />
        </mxCell>
        <mxCell id="zUjJbxAkN1TlkHFBeBEU-14" value="Env::Schedule()" style="rounded=1;whiteSpace=wrap;html=1;absoluteArcSize=1;arcSize=14;strokeWidth=2;" vertex="1" parent="1">
          <mxGeometry x="-350" y="680" width="250" height="50" as="geometry" />
        </mxCell>
        <mxCell id="zUjJbxAkN1TlkHFBeBEU-23" style="edgeStyle=orthogonalEdgeStyle;rounded=0;orthogonalLoop=1;jettySize=auto;html=1;entryX=0.5;entryY=0;entryDx=0;entryDy=0;" edge="1" parent="1" source="zUjJbxAkN1TlkHFBeBEU-15" target="zUjJbxAkN1TlkHFBeBEU-16">
          <mxGeometry relative="1" as="geometry" />
        </mxCell>
        <mxCell id="zUjJbxAkN1TlkHFBeBEU-15" value="DBImpl::BGWork" style="rounded=1;whiteSpace=wrap;html=1;absoluteArcSize=1;arcSize=14;strokeWidth=2;" vertex="1" parent="1">
          <mxGeometry x="-350" y="760" width="250" height="50" as="geometry" />
        </mxCell>
        <mxCell id="zUjJbxAkN1TlkHFBeBEU-24" style="edgeStyle=orthogonalEdgeStyle;rounded=0;orthogonalLoop=1;jettySize=auto;html=1;entryX=0.5;entryY=0;entryDx=0;entryDy=0;" edge="1" parent="1" source="zUjJbxAkN1TlkHFBeBEU-16" target="zUjJbxAkN1TlkHFBeBEU-17">
          <mxGeometry relative="1" as="geometry" />
        </mxCell>
        <mxCell id="zUjJbxAkN1TlkHFBeBEU-25" style="edgeStyle=orthogonalEdgeStyle;rounded=0;orthogonalLoop=1;jettySize=auto;html=1;" edge="1" parent="1" source="zUjJbxAkN1TlkHFBeBEU-16" target="zUjJbxAkN1TlkHFBeBEU-19">
          <mxGeometry relative="1" as="geometry" />
        </mxCell>
        <mxCell id="zUjJbxAkN1TlkHFBeBEU-16" value="DBImpl::BackgroundCall" style="rounded=1;whiteSpace=wrap;html=1;absoluteArcSize=1;arcSize=14;strokeWidth=2;" vertex="1" parent="1">
          <mxGeometry x="-350" y="840" width="250" height="50" as="geometry" />
        </mxCell>
        <mxCell id="zUjJbxAkN1TlkHFBeBEU-28" style="edgeStyle=orthogonalEdgeStyle;rounded=0;orthogonalLoop=1;jettySize=auto;html=1;entryX=0.5;entryY=0;entryDx=0;entryDy=0;" edge="1" parent="1" source="zUjJbxAkN1TlkHFBeBEU-17" target="zUjJbxAkN1TlkHFBeBEU-26">
          <mxGeometry relative="1" as="geometry" />
        </mxCell>
        <mxCell id="zUjJbxAkN1TlkHFBeBEU-30" style="edgeStyle=orthogonalEdgeStyle;rounded=0;orthogonalLoop=1;jettySize=auto;html=1;" edge="1" parent="1" source="zUjJbxAkN1TlkHFBeBEU-17" target="zUjJbxAkN1TlkHFBeBEU-29">
          <mxGeometry relative="1" as="geometry" />
        </mxCell>
        <mxCell id="zUjJbxAkN1TlkHFBeBEU-17" value="DBImpl::BackgroundCompaction" style="rounded=1;whiteSpace=wrap;html=1;absoluteArcSize=1;arcSize=14;strokeWidth=2;" vertex="1" parent="1">
          <mxGeometry x="-150" y="960" width="250" height="50" as="geometry" />
        </mxCell>
        <mxCell id="zUjJbxAkN1TlkHFBeBEU-19" value="DBImpl::MaybeScheduleCompaction" style="rounded=1;whiteSpace=wrap;html=1;absoluteArcSize=1;arcSize=14;strokeWidth=2;" vertex="1" parent="1">
          <mxGeometry x="-530" y="960" width="250" height="50" as="geometry" />
        </mxCell>
        <mxCell id="zUjJbxAkN1TlkHFBeBEU-26" value="DBImpl::CompactMemTable()" style="rounded=1;whiteSpace=wrap;html=1;absoluteArcSize=1;arcSize=14;strokeWidth=2;" vertex="1" parent="1">
          <mxGeometry x="-320" y="1080" width="250" height="50" as="geometry" />
        </mxCell>
        <mxCell id="zUjJbxAkN1TlkHFBeBEU-32" style="edgeStyle=orthogonalEdgeStyle;rounded=0;orthogonalLoop=1;jettySize=auto;html=1;entryX=0.5;entryY=0;entryDx=0;entryDy=0;" edge="1" parent="1" source="zUjJbxAkN1TlkHFBeBEU-29" target="zUjJbxAkN1TlkHFBeBEU-31">
          <mxGeometry relative="1" as="geometry" />
        </mxCell>
        <mxCell id="zUjJbxAkN1TlkHFBeBEU-36" style="edgeStyle=orthogonalEdgeStyle;rounded=0;orthogonalLoop=1;jettySize=auto;html=1;entryX=0;entryY=0.5;entryDx=0;entryDy=0;" edge="1" parent="1" source="zUjJbxAkN1TlkHFBeBEU-29" target="zUjJbxAkN1TlkHFBeBEU-35">
          <mxGeometry relative="1" as="geometry" />
        </mxCell>
        <mxCell id="zUjJbxAkN1TlkHFBeBEU-39" style="edgeStyle=orthogonalEdgeStyle;rounded=0;orthogonalLoop=1;jettySize=auto;html=1;" edge="1" parent="1" source="zUjJbxAkN1TlkHFBeBEU-29" target="zUjJbxAkN1TlkHFBeBEU-37">
          <mxGeometry relative="1" as="geometry" />
        </mxCell>
        <mxCell id="zUjJbxAkN1TlkHFBeBEU-41" style="edgeStyle=orthogonalEdgeStyle;rounded=0;orthogonalLoop=1;jettySize=auto;html=1;entryX=0;entryY=0.5;entryDx=0;entryDy=0;" edge="1" parent="1" source="zUjJbxAkN1TlkHFBeBEU-29" target="zUjJbxAkN1TlkHFBeBEU-38">
          <mxGeometry relative="1" as="geometry" />
        </mxCell>
        <mxCell id="zUjJbxAkN1TlkHFBeBEU-29" value="DBImpl::DoCompactionWork" style="rounded=1;whiteSpace=wrap;html=1;absoluteArcSize=1;arcSize=14;strokeWidth=2;" vertex="1" parent="1">
          <mxGeometry x="20" y="1080" width="250" height="50" as="geometry" />
        </mxCell>
        <mxCell id="zUjJbxAkN1TlkHFBeBEU-34" style="edgeStyle=orthogonalEdgeStyle;rounded=0;orthogonalLoop=1;jettySize=auto;html=1;" edge="1" parent="1" source="zUjJbxAkN1TlkHFBeBEU-31" target="zUjJbxAkN1TlkHFBeBEU-33">
          <mxGeometry relative="1" as="geometry" />
        </mxCell>
        <mxCell id="zUjJbxAkN1TlkHFBeBEU-31" value="DBImpl::CleanupCompaction" style="rounded=1;whiteSpace=wrap;html=1;absoluteArcSize=1;arcSize=14;strokeWidth=2;" vertex="1" parent="1">
          <mxGeometry x="20" y="1200" width="250" height="50" as="geometry" />
        </mxCell>
        <mxCell id="zUjJbxAkN1TlkHFBeBEU-33" value="DBImpl::RemoveObsoleteFiles" style="rounded=1;whiteSpace=wrap;html=1;absoluteArcSize=1;arcSize=14;strokeWidth=2;" vertex="1" parent="1">
          <mxGeometry x="20" y="1320" width="250" height="50" as="geometry" />
        </mxCell>
        <mxCell id="zUjJbxAkN1TlkHFBeBEU-35" value="DBImpl::CompactMemTable" style="rounded=1;whiteSpace=wrap;html=1;absoluteArcSize=1;arcSize=14;strokeWidth=2;" vertex="1" parent="1">
          <mxGeometry x="360" y="1000" width="250" height="50" as="geometry" />
        </mxCell>
        <mxCell id="zUjJbxAkN1TlkHFBeBEU-37" value="DBImpl::FinishCompactionOutputFile" style="rounded=1;whiteSpace=wrap;html=1;absoluteArcSize=1;arcSize=14;strokeWidth=2;" vertex="1" parent="1">
          <mxGeometry x="360" y="1080" width="250" height="50" as="geometry" />
        </mxCell>
        <mxCell id="zUjJbxAkN1TlkHFBeBEU-38" value="DBImpl::ParseInternalKey" style="rounded=1;whiteSpace=wrap;html=1;absoluteArcSize=1;arcSize=14;strokeWidth=2;" vertex="1" parent="1">
          <mxGeometry x="360" y="1160" width="250" height="50" as="geometry" />
        </mxCell>
      </root>
    </mxGraphModel>
  </diagram>
</mxfile>
